<svg width="1600" height="1000" viewBox="0 0 1600 1000" fill="none" xmlns="http://www.w3.org/2000/svg">
  <defs>
    <linearGradient id="bg" x1="0" y1="0" x2="1600" y2="1000" gradientUnits="userSpaceOnUse">
      <stop stop-color="#0F172A"/>
      <stop offset="1" stop-color="#1D4ED8"/>
    </linearGradient>
    <linearGradient id="card" x1="420" y1="140" x2="1180" y2="860" gradientUnits="userSpaceOnUse">
      <stop stop-color="#FFFFFF"/>
      <stop offset="1" stop-color="#F8FAFC"/>
    </linearGradient>
    <filter id="shadow" x="340" y="100" width="920" height="820" filterUnits="userSpaceOnUse" color-interpolation-filters="sRGB">
      <feDropShadow dx="0" dy="20" stdDeviation="24" flood-color="#020617" flood-opacity="0.32"/>
    </filter>
  </defs>
  <rect width="1600" height="1000" fill="url(#bg)"/>
  <circle cx="240" cy="180" r="180" fill="#38BDF8" fill-opacity="0.18"/>
  <circle cx="1380" cy="220" r="210" fill="#22C55E" fill-opacity="0.14"/>
  <circle cx="1280" cy="860" r="240" fill="#A855F7" fill-opacity="0.12"/>

  <g filter="url(#shadow)">
    <rect x="420" y="130" width="760" height="740" rx="36" fill="url(#card)"/>
  </g>
  <circle cx="800" cy="230" r="54" fill="#DBEAFE"/>
  <path d="M800 180L760 198V232C760 276 790 311 800 314C810 311 840 276 840 232V198L800 180Z" fill="#1D4ED8"/>
  <path d="M786 232L798 244L818 222" stroke="white" stroke-width="8" stroke-linecap="round" stroke-linejoin="round"/>

  <text x="624" y="328" fill="#0F172A" font-family="Arial, Helvetica, sans-serif" font-size="42" font-weight="700">Two-Factor Verification</text>
  <text x="580" y="372" fill="#475569" font-family="Arial, Helvetica, sans-serif" font-size="22">Verifying identity for Sarah Chen with security key login.</text>

  <rect x="534" y="430" width="154" height="52" rx="16" fill="#EFF6FF"/>
  <text x="574" y="463" fill="#1D4ED8" font-family="Arial, Helvetica, sans-serif" font-size="22" font-weight="700">App</text>
  <rect x="706" y="430" width="154" height="52" rx="16" fill="#EFF6FF"/>
  <text x="740" y="463" fill="#1D4ED8" font-family="Arial, Helvetica, sans-serif" font-size="22" font-weight="700">Email</text>
  <rect x="878" y="430" width="188" height="52" rx="16" fill="#1D4ED8"/>
  <text x="914" y="463" fill="white" font-family="Arial, Helvetica, sans-serif" font-size="22" font-weight="700">Security Key</text>

  <circle cx="800" cy="568" r="72" fill="#DBEAFE"/>
  <circle cx="800" cy="568" r="28" fill="#1D4ED8" fill-opacity="0.18" stroke="#1D4ED8" stroke-width="8"/>
  <path d="M848 616L910 678" stroke="#1D4ED8" stroke-width="12" stroke-linecap="round"/>
  <path d="M880 648L902 626" stroke="#1D4ED8" stroke-width="12" stroke-linecap="round"/>
  <path d="M910 678L932 656" stroke="#1D4ED8" stroke-width="12" stroke-linecap="round"/>

  <text x="626" y="690" fill="#0F172A" font-family="Arial, Helvetica, sans-serif" font-size="28" font-weight="700">Authenticate with Security Key</text>
  <text x="584" y="732" fill="#64748B" font-family="Arial, Helvetica, sans-serif" font-size="22">Insert your key and tap it when it glows, or use biometrics.</text>

  <rect x="566" y="772" width="468" height="62" rx="20" fill="#1D4ED8"/>
  <text x="676" y="811" fill="white" font-family="Arial, Helvetica, sans-serif" font-size="26" font-weight="700">Verify and Continue</text>

  <rect x="1020" y="170" width="114" height="42" rx="14" fill="#DCFCE7"/>
  <text x="1048" y="197" fill="#166534" font-family="Arial, Helvetica, sans-serif" font-size="20" font-weight="700">Trusted</text>
</svg>
